<?xml version="1.0" encoding="utf-8"?>
<!-- Svg Vector Icons : http://www.onlinewebfonts.com/icon -->
<!DOCTYPE svg PUBLIC "-//W3C//DTD SVG 1.1//EN" "http://www.w3.org/Graphics/SVG/1.1/DTD/svg11.dtd">
<svg version="1.1" xmlns="http://www.w3.org/2000/svg" xmlns:xlink="http://www.w3.org/1999/xlink" x="0px" y="0px" viewBox="0 0 1000 1000" enable-background="new 0 0 1000 1000" xml:space="preserve">
<metadata> Svg Vector Icons : http://www.onlinewebfonts.com/icon </metadata>
<g><g><g><path d="M496.3,301c-78.4,0-142.1-63.7-142.1-142.1c0-78.4,63.7-142.1,142.1-142.1c78.3,0,142.1,63.7,142.1,142.1C638.4,237.3,574.7,301,496.3,301z"/></g><g><path d="M152.1,301C73.7,301,10,237.3,10,158.9C10,80.5,73.7,16.8,152.1,16.8s142.1,63.7,142.1,142.1C294.2,237.3,230.5,301,152.1,301z"/></g><g><path d="M847.9,301c-78.3,0-142.1-63.7-142.1-142.1c0-78.4,63.8-142.1,142.1-142.1c78.3,0,142.1,63.7,142.1,142.1C990,237.3,926.2,301,847.9,301z"/></g><g><path d="M496.3,642.7c-78.4,0-142.1-63.8-142.1-142.1c0-78.4,63.7-142.1,142.1-142.1c78.3,0,142.1,63.8,142.1,142.1C638.5,578.9,574.7,642.7,496.3,642.7z"/></g><g><path d="M152.1,642.7C73.8,642.7,10,578.9,10,500.5c0-78.4,63.7-142.1,142.1-142.1c78.4,0,142.1,63.8,142.1,142.1C294.2,578.9,230.5,642.7,152.1,642.7z"/></g><g><path d="M847.9,642.7c-78.3,0-142.1-63.8-142.1-142.1c0-78.4,63.8-142.1,142.1-142.1S990,422.2,990,500.5C990,578.9,926.3,642.7,847.9,642.7z"/></g><g><path d="M496.3,983.2c-78.4,0-142.1-63.8-142.1-142.1c0-78.3,63.7-142.1,142.1-142.1c78.3,0,142.1,63.8,142.1,142.1C638.5,919.5,574.7,983.2,496.3,983.2z"/></g><g><path d="M152.1,983.2C73.8,983.2,10,919.5,10,841.1C10,762.8,73.8,699,152.1,699c78.4,0,142.1,63.8,142.1,142.1C294.2,919.5,230.5,983.2,152.1,983.2z"/></g><g><path d="M847.9,983.2c-78.3,0-142.1-63.8-142.1-142.1c0-78.3,63.8-142.1,142.1-142.1S990,762.8,990,841.1C990,919.5,926.3,983.2,847.9,983.2z"/></g></g><g></g><g></g><g></g><g></g><g></g><g></g><g></g><g></g><g></g><g></g><g></g><g></g><g></g><g></g><g></g></g>
</svg>