<svg xmlns="http://www.w3.org/2000/svg" xmlns:xlink="http://www.w3.org/1999/xlink" version="1.1" width="256" height="256" viewBox="0 0 256 256" xml:space="preserve">
<desc>Created with Fabric.js 1.7.22</desc>
<defs>
</defs>
<g transform="translate(128 128) scale(0.72 0.72)" style="">
	<g style="stroke: none; stroke-width: 0; stroke-dasharray: none; stroke-linecap: butt; stroke-linejoin: miter; stroke-miterlimit: 10; fill: none; fill-rule: nonzero; opacity: 1;" transform="translate(-175.05 -175.05000000000004) scale(3.89 3.89)" >
	<path d="M 43.633 71.782 c -0.552 0 -1 -0.447 -1 -0.999 L 42.63 65.78 c 0 -1.014 0.367 -1.974 1.036 -2.701 c 0.69 -0.752 1.612 -1.166 2.595 -1.166 c 0.001 0 0.002 0 0.002 0 c 0.982 0 1.903 0.413 2.594 1.163 c 0.67 0.728 1.038 1.686 1.039 2.699 l 0.003 5.003 c 0 0.553 -0.447 1.001 -0.999 1.001 c -0.001 0 -0.001 0 -0.001 0 c -0.552 0 -1 -0.447 -1 -0.999 l -0.003 -5.003 c 0 -0.512 -0.182 -0.989 -0.511 -1.347 c -0.307 -0.334 -0.705 -0.518 -1.122 -0.518 c -0.001 0 -0.001 0 -0.001 0 c -0.418 0 -0.816 0.184 -1.123 0.519 c -0.329 0.357 -0.509 0.836 -0.509 1.347 l 0.003 5.003 C 44.633 71.334 44.186 71.782 43.633 71.782 L 43.633 71.782 z" style="stroke: none; stroke-width: 1; stroke-dasharray: none; stroke-linecap: butt; stroke-linejoin: miter; stroke-miterlimit: 10; fill: rgb(107,107,107); fill-rule: nonzero; opacity: 1;" transform=" matrix(1 0 0 1 0 0) " stroke-linecap="round" />
	<path d="M 48.898 71.779 c -0.552 0 -1 -0.447 -1 -0.999 l -0.003 -4.404 c -0.001 -2.132 1.628 -3.867 3.631 -3.868 c 0.001 0 0.002 0 0.003 0 c 0.982 0 1.903 0.413 2.594 1.164 c 0.67 0.728 1.038 1.686 1.038 2.699 l 0.003 4.318 c 0 0.553 -0.447 1.001 -0.999 1.001 c -0.001 0 -0.001 0 -0.001 0 c -0.552 0 -1 -0.447 -1 -0.999 l -0.003 -4.319 c 0 -0.512 -0.181 -0.989 -0.51 -1.347 c -0.307 -0.334 -0.706 -0.518 -1.122 -0.518 c -0.001 0 -0.001 0 -0.001 0 c -0.901 0.001 -1.634 0.838 -1.633 1.866 l 0.003 4.404 C 49.898 71.331 49.451 71.779 48.898 71.779 C 48.898 71.779 48.898 71.779 48.898 71.779 z" style="stroke: none; stroke-width: 1; stroke-dasharray: none; stroke-linecap: butt; stroke-linejoin: miter; stroke-miterlimit: 10; fill: rgb(107,107,107); fill-rule: nonzero; opacity: 1;" transform=" matrix(1 0 0 1 0 0) " stroke-linecap="round" />
	<path d="M 48.608 89.094 c -2.452 0 -4.808 -0.813 -6.814 -2.35 l -10.712 -8.152 c -1.595 -1.213 -1.992 -3.603 -0.885 -5.326 c 0.555 -0.862 1.432 -1.455 2.406 -1.627 c 0.96 -0.167 1.921 0.066 2.708 0.666 l 2.058 1.566 l -0.01 -16.64 c -0.001 -2.132 1.627 -3.867 3.631 -3.868 c 0 0 0.001 0 0.002 0 c 0.982 0 1.903 0.413 2.594 1.163 c 0.669 0.728 1.038 1.687 1.039 2.7 l 0.005 8.552 c 0 0.553 -0.447 1.001 -1 1.001 h 0 c -0.552 0 -1 -0.447 -1 -0.999 l -0.005 -8.553 c 0 -0.511 -0.182 -0.989 -0.51 -1.347 c -0.307 -0.334 -0.706 -0.518 -1.123 -0.518 c 0 0 0 0 -0.001 0 c -0.9 0.001 -1.632 0.838 -1.632 1.866 l 0.011 18.659 c 0 0.381 -0.215 0.728 -0.556 0.896 c -0.34 0.171 -0.747 0.131 -1.05 -0.1 L 34.1 73.896 c -0.338 -0.258 -0.748 -0.359 -1.149 -0.288 c -0.433 0.076 -0.813 0.339 -1.071 0.739 c -0.547 0.852 -0.358 2.065 0.413 2.652 l 10.715 8.154 c 1.657 1.27 3.592 1.939 5.6 1.939 c 0.003 0 0.005 0 0.008 0 c 2.596 -0.001 5.049 -1.116 6.906 -3.141 c 1.879 -2.047 2.913 -4.762 2.911 -7.643 l -0.005 -7.438 c 0 -0.512 -0.182 -0.989 -0.511 -1.347 c -0.307 -0.334 -0.705 -0.518 -1.122 -0.518 c -0.001 0 -0.001 0 -0.001 0 c -0.418 0 -0.816 0.184 -1.123 0.519 c -0.328 0.357 -0.509 0.836 -0.509 1.347 c 0 0.553 -0.447 1.001 -0.999 1.001 c -0.001 0 -0.001 0 -0.001 0 c -0.552 0 -1 -0.447 -1 -0.999 c -0.001 -1.014 0.367 -1.974 1.035 -2.701 c 0.69 -0.752 1.612 -1.166 2.596 -1.166 c 0.001 0 0.002 0 0.002 0 c 0.982 0 1.903 0.413 2.594 1.163 c 0.67 0.728 1.038 1.686 1.039 2.699 l 0.005 7.438 c 0.002 3.385 -1.219 6.58 -3.438 8.997 c -2.241 2.441 -5.217 3.786 -8.378 3.788 C 48.614 89.094 48.611 89.094 48.608 89.094 z" style="stroke: none; stroke-width: 1; stroke-dasharray: none; stroke-linecap: butt; stroke-linejoin: miter; stroke-miterlimit: 10; fill: rgb(107,107,107); fill-rule: nonzero; opacity: 1;" transform=" matrix(1 0 0 1 0 0) " stroke-linecap="round" />
	<path d="M 15.536 64 c -0.079 0 -0.157 -0.009 -0.235 -0.028 C 8.321 62.285 0 59.229 0 54.248 V 13.691 C 0 5.387 23.185 0.906 45 0.906 c 21.814 0 45 4.481 45 12.786 c 0 4.8 -7.728 7.813 -14.536 9.535 V 63 c 0 0.553 -0.447 1 -1 1 s -1 -0.447 -1 -1 V 22.443 c 0 -0.462 0.316 -0.864 0.765 -0.972 C 82.724 19.418 88 16.438 88 13.691 C 88 8.59 70.341 2.906 45 2.906 c -25.34 0 -43 5.684 -43 10.786 c 0 2.746 5.276 5.727 13.771 7.78 c 0.449 0.108 0.765 0.51 0.765 0.972 V 63 c 0 0.307 -0.141 0.597 -0.381 0.786 C 15.976 63.926 15.758 64 15.536 64 z M 2 17.683 v 36.565 c 0 2.61 4.768 5.433 12.536 7.469 V 23.226 C 9.855 22.042 4.74 20.248 2 17.683 z" style="stroke: none; stroke-width: 1; stroke-dasharray: none; stroke-linecap: butt; stroke-linejoin: miter; stroke-miterlimit: 10; fill: rgb(107,107,107); fill-rule: nonzero; opacity: 1;" transform=" matrix(1 0 0 1 0 0) " stroke-linecap="round" />
	<path d="M 74.463 64 c -0.451 0 -0.86 -0.308 -0.971 -0.765 c -0.13 -0.537 0.2 -1.077 0.736 -1.207 C 82.724 59.975 88 56.994 88 54.248 V 13.691 c 0 -0.552 0.447 -1 1 -1 s 1 0.448 1 1 v 40.557 c 0 4.98 -8.321 8.037 -15.301 9.724 C 74.62 63.991 74.541 64 74.463 64 z" style="stroke: none; stroke-width: 1; stroke-dasharray: none; stroke-linecap: butt; stroke-linejoin: miter; stroke-miterlimit: 10; fill: rgb(107,107,107); fill-rule: nonzero; opacity: 1;" transform=" matrix(1 0 0 1 0 0) " stroke-linecap="round" />
	<path d="M 12.746 15.048 c -0.427 0 -0.822 -0.275 -0.955 -0.705 c -0.164 -0.527 0.132 -1.088 0.659 -1.251 c 4.475 -1.387 10.148 -2.492 16.405 -3.198 c 0.544 -0.066 1.044 0.333 1.106 0.881 s -0.333 1.044 -0.881 1.106 c -6.134 0.692 -11.68 1.771 -16.038 3.121 C 12.943 15.034 12.844 15.048 12.746 15.048 z" style="stroke: none; stroke-width: 1; stroke-dasharray: none; stroke-linecap: butt; stroke-linejoin: miter; stroke-miterlimit: 10; fill: rgb(107,107,107); fill-rule: nonzero; opacity: 1;" transform=" matrix(1 0 0 1 0 0) " stroke-linecap="round" />
	<path d="M 22.07 21.74 c -0.477 0 -0.899 -0.342 -0.984 -0.828 c -0.095 -0.544 0.27 -1.062 0.813 -1.157 c 2.199 -0.383 4.54 -0.716 6.956 -0.989 c 0.544 -0.067 1.044 0.333 1.106 0.881 s -0.333 1.044 -0.881 1.106 c -2.377 0.269 -4.677 0.596 -6.837 0.972 C 22.185 21.735 22.126 21.74 22.07 21.74 z" style="stroke: none; stroke-width: 1; stroke-dasharray: none; stroke-linecap: butt; stroke-linejoin: miter; stroke-miterlimit: 10; fill: rgb(107,107,107); fill-rule: nonzero; opacity: 1;" transform=" matrix(1 0 0 1 0 0) " stroke-linecap="round" />
	<path d="M 32.16 51.361 c -0.827 0 -1.652 -0.225 -2.403 -0.675 c -1.484 -0.89 -2.332 -2.454 -2.268 -4.184 L 26.92 34.309 c 0.089 -2.503 1.895 -4.507 4.292 -4.849 l 7.111 -1.011 c 1.956 -0.278 3.879 -0.786 5.718 -1.51 l 6.684 -2.632 c 2.251 -0.887 4.812 -0.036 6.085 2.024 l 5.608 11.03 c 0.869 1.4 0.903 3.179 0.052 4.686 c -0.842 1.49 -2.359 2.375 -4.067 2.375 c -0.019 0 -0.037 0 -0.057 0 l -7.397 -0.084 c -3.525 -0.056 -6.996 0.877 -10.041 2.652 l -6.392 3.726 C 33.777 51.146 32.968 51.361 32.16 51.361 z M 52.566 25.958 c -0.37 0 -0.746 0.068 -1.109 0.211 L 44.773 28.8 c -1.983 0.781 -4.059 1.329 -6.169 1.629 l -7.111 1.011 c -1.438 0.204 -2.521 1.407 -2.575 2.859 l 0.569 12.194 c -0.037 1.072 0.449 1.968 1.298 2.477 c 0.85 0.51 1.867 0.517 2.724 0.017 l 6.392 -3.725 c 3.356 -1.957 7.188 -2.979 11.07 -2.924 c 0.001 0 0.001 0 0.001 0 l 7.397 0.084 c 0.011 0 0.021 0 0.031 0 c 0.978 0 1.847 -0.506 2.328 -1.359 c 0.487 -0.862 0.468 -1.88 -0.053 -2.723 l -5.608 -11.03 C 54.539 26.459 53.575 25.958 52.566 25.958 z" style="stroke: none; stroke-width: 1; stroke-dasharray: none; stroke-linecap: butt; stroke-linejoin: miter; stroke-miterlimit: 10; fill: rgb(107,107,107); fill-rule: nonzero; opacity: 1;" transform=" matrix(1 0 0 1 0 0) " stroke-linecap="round" />
	<path d="M 48.96 38.1 c -0.271 0 -0.53 -0.11 -0.71 -0.29 c -0.101 -0.1 -0.17 -0.21 -0.22 -0.33 c -0.051 -0.12 -0.08 -0.25 -0.08 -0.38 c 0 -0.13 0.029 -0.26 0.08 -0.38 c 0.05 -0.13 0.119 -0.24 0.22 -0.33 c 0.04 -0.04 0.09 -0.09 0.149 -0.12 c 0.051 -0.04 0.11 -0.07 0.17 -0.09 c 0.061 -0.03 0.131 -0.05 0.19 -0.06 c 0.13 -0.03 0.26 -0.03 0.39 0 c 0.061 0.01 0.131 0.03 0.19 0.06 c 0.06 0.02 0.12 0.05 0.17 0.09 c 0.05 0.03 0.11 0.08 0.15 0.12 c 0.09 0.09 0.17 0.2 0.22 0.33 c 0.05 0.12 0.07 0.25 0.07 0.38 c 0 0.26 -0.101 0.52 -0.29 0.71 C 49.479 37.99 49.22 38.1 48.96 38.1 z" style="stroke: none; stroke-width: 1; stroke-dasharray: none; stroke-linecap: butt; stroke-linejoin: miter; stroke-miterlimit: 10; fill: rgb(107,107,107); fill-rule: nonzero; opacity: 1;" transform=" matrix(1 0 0 1 0 0) " stroke-linecap="round" />
	<path d="M 51.399 32.71 c -0.26 0 -0.52 -0.11 -0.71 -0.3 c -0.18 -0.18 -0.29 -0.44 -0.29 -0.7 c 0 -0.27 0.11 -0.52 0.29 -0.71 c 0.38 -0.37 1.051 -0.37 1.42 0 c 0.19 0.19 0.29 0.44 0.29 0.71 c 0 0.26 -0.1 0.52 -0.29 0.7 C 51.92 32.6 51.67 32.71 51.399 32.71 z" style="stroke: none; stroke-width: 1; stroke-dasharray: none; stroke-linecap: butt; stroke-linejoin: miter; stroke-miterlimit: 10; fill: rgb(107,107,107); fill-rule: nonzero; opacity: 1;" transform=" matrix(1 0 0 1 0 0) " stroke-linecap="round" />
	<path d="M 37.478 42.578 c -0.443 0 -0.848 -0.297 -0.966 -0.745 l -1.585 -6 c -0.141 -0.534 0.177 -1.081 0.711 -1.222 c 0.533 -0.141 1.081 0.178 1.222 0.711 l 1.585 6 c 0.141 0.534 -0.177 1.081 -0.711 1.222 C 37.648 42.567 37.562 42.578 37.478 42.578 z" style="stroke: none; stroke-width: 1; stroke-dasharray: none; stroke-linecap: butt; stroke-linejoin: miter; stroke-miterlimit: 10; fill: rgb(107,107,107); fill-rule: nonzero; opacity: 1;" transform=" matrix(1 0 0 1 0 0) " stroke-linecap="round" />
	<path d="M 33.685 40.371 c -0.443 0 -0.848 -0.297 -0.966 -0.745 c -0.141 -0.534 0.177 -1.081 0.711 -1.222 l 6 -1.585 c 0.533 -0.142 1.081 0.177 1.222 0.711 s -0.177 1.081 -0.711 1.222 l -6 1.585 C 33.855 40.359 33.77 40.371 33.685 40.371 z" style="stroke: none; stroke-width: 1; stroke-dasharray: none; stroke-linecap: butt; stroke-linejoin: miter; stroke-miterlimit: 10; fill: rgb(107,107,107); fill-rule: nonzero; opacity: 1;" transform=" matrix(1 0 0 1 0 0) " stroke-linecap="round" />
	<path d="M 48.96 38.1 c -0.271 0 -0.53 -0.11 -0.71 -0.29 c -0.101 -0.1 -0.17 -0.21 -0.22 -0.33 c -0.051 -0.12 -0.08 -0.25 -0.08 -0.38 c 0 -0.13 0.029 -0.26 0.08 -0.38 c 0.05 -0.13 0.119 -0.24 0.22 -0.33 c 0.04 -0.04 0.09 -0.09 0.149 -0.12 c 0.051 -0.04 0.11 -0.07 0.17 -0.09 c 0.061 -0.03 0.131 -0.05 0.19 -0.06 c 0.13 -0.03 0.26 -0.03 0.39 0 c 0.061 0.01 0.131 0.03 0.19 0.06 c 0.06 0.02 0.12 0.05 0.17 0.09 c 0.05 0.03 0.11 0.08 0.15 0.12 c 0.09 0.09 0.17 0.2 0.22 0.33 c 0.05 0.12 0.07 0.25 0.07 0.38 c 0 0.26 -0.101 0.52 -0.29 0.71 C 49.479 37.99 49.22 38.1 48.96 38.1 z" style="stroke: none; stroke-width: 1; stroke-dasharray: none; stroke-linecap: butt; stroke-linejoin: miter; stroke-miterlimit: 10; fill: rgb(107,107,107); fill-rule: nonzero; opacity: 1;" transform=" matrix(1 0 0 1 0 0) " stroke-linecap="round" />
	<path d="M 51.399 32.71 c -0.26 0 -0.52 -0.11 -0.71 -0.3 c -0.18 -0.18 -0.29 -0.44 -0.29 -0.7 c 0 -0.27 0.11 -0.52 0.29 -0.71 c 0.38 -0.37 1.051 -0.37 1.42 0 c 0.19 0.19 0.29 0.44 0.29 0.71 c 0 0.26 -0.1 0.52 -0.29 0.7 C 51.92 32.6 51.67 32.71 51.399 32.71 z" style="stroke: none; stroke-width: 1; stroke-dasharray: none; stroke-linecap: butt; stroke-linejoin: miter; stroke-miterlimit: 10; fill: rgb(107,107,107); fill-rule: nonzero; opacity: 1;" transform=" matrix(1 0 0 1 0 0) " stroke-linecap="round" />
	<path d="M 77.772 15.048 c -0.098 0 -0.197 -0.015 -0.296 -0.045 c -1.478 -0.458 -3.105 -0.889 -4.839 -1.281 c -0.539 -0.122 -0.877 -0.657 -0.755 -1.196 s 0.658 -0.878 1.196 -0.754 c 1.784 0.404 3.462 0.848 4.989 1.321 c 0.527 0.163 0.822 0.723 0.659 1.251 C 78.595 14.773 78.199 15.048 77.772 15.048 z" style="stroke: none; stroke-width: 1; stroke-dasharray: none; stroke-linecap: butt; stroke-linejoin: miter; stroke-miterlimit: 10; fill: rgb(107,107,107); fill-rule: nonzero; opacity: 1;" transform=" matrix(1 0 0 1 0 0) " stroke-linecap="round" />
	<path d="M 68.449 12.869 c -0.057 0 -0.114 -0.005 -0.173 -0.015 c -2.166 -0.378 -4.467 -0.705 -6.837 -0.972 c -0.549 -0.062 -0.943 -0.557 -0.882 -1.106 c 0.062 -0.548 0.548 -0.945 1.106 -0.881 c 2.409 0.271 4.75 0.604 6.956 0.989 c 0.544 0.095 0.908 0.613 0.813 1.157 C 69.349 12.526 68.927 12.869 68.449 12.869 z" style="stroke: none; stroke-width: 1; stroke-dasharray: none; stroke-linecap: butt; stroke-linejoin: miter; stroke-miterlimit: 10; fill: rgb(107,107,107); fill-rule: nonzero; opacity: 1;" transform=" matrix(1 0 0 1 0 0) " stroke-linecap="round" />
	<path d="M 68.449 21.74 c -0.057 0 -0.114 -0.005 -0.173 -0.015 c -2.158 -0.376 -4.459 -0.704 -6.837 -0.972 c -0.549 -0.062 -0.943 -0.557 -0.882 -1.106 c 0.063 -0.549 0.548 -0.951 1.106 -0.881 c 2.418 0.273 4.758 0.606 6.956 0.989 c 0.544 0.095 0.908 0.613 0.813 1.157 C 69.349 21.398 68.927 21.74 68.449 21.74 z" style="stroke: none; stroke-width: 1; stroke-dasharray: none; stroke-linecap: butt; stroke-linejoin: miter; stroke-miterlimit: 10; fill: rgb(107,107,107); fill-rule: nonzero; opacity: 1;" transform=" matrix(1 0 0 1 0 0) " stroke-linecap="round" />
	<path d="M 15.535 46.495 c -0.451 0 -0.86 -0.308 -0.971 -0.765 c -0.129 -0.537 0.2 -1.077 0.737 -1.207 c 3.831 -0.926 8.181 -1.659 12.93 -2.181 c 0.539 -0.055 1.043 0.335 1.103 0.885 c 0.06 0.549 -0.336 1.042 -0.885 1.103 c -4.664 0.512 -8.93 1.231 -12.678 2.136 C 15.691 46.486 15.613 46.495 15.535 46.495 z" style="stroke: none; stroke-width: 1; stroke-dasharray: none; stroke-linecap: butt; stroke-linejoin: miter; stroke-miterlimit: 10; fill: rgb(107,107,107); fill-rule: nonzero; opacity: 1;" transform=" matrix(1 0 0 1 0 0) " stroke-linecap="round" />
	<path d="M 74.466 46.495 c -0.078 0 -0.157 -0.009 -0.236 -0.028 c -4.256 -1.028 -9.143 -1.811 -14.523 -2.325 c -0.55 -0.053 -0.953 -0.541 -0.9 -1.091 c 0.052 -0.549 0.535 -0.947 1.09 -0.9 c 5.476 0.524 10.457 1.322 14.805 2.373 c 0.536 0.13 0.866 0.67 0.736 1.207 C 75.326 46.188 74.917 46.495 74.466 46.495 z" style="stroke: none; stroke-width: 1; stroke-dasharray: none; stroke-linecap: butt; stroke-linejoin: miter; stroke-miterlimit: 10; fill: rgb(107,107,107); fill-rule: nonzero; opacity: 1;" transform=" matrix(1 0 0 1 0 0) " stroke-linecap="round" />
</g>
</g>
</svg>